<mxfile host="www.draw.io" modified="2020-01-28T01:30:02.556Z" agent="Mozilla/5.0 (Windows NT 10.0; Win64; x64) AppleWebKit/537.36 (KHTML, like Gecko) Chrome/79.0.3945.130 Safari/537.36" etag="7Mwz_Yc4-mSum4PEczMH" version="12.5.8" type="github">
  <diagram id="OXFuptE2Vq4uaXg9FuB-" name="Page-1">
    <mxGraphModel dx="1264" dy="533" grid="1" gridSize="10" guides="1" tooltips="1" connect="1" arrows="1" fold="1" page="1" pageScale="1" pageWidth="850" pageHeight="1100" math="0" shadow="0">
      <root>
        <mxCell id="0"/>
        <mxCell id="1" parent="0"/>
        <mxCell id="OGBKBctr95_yfihr8h83-2" value="hesabyar system" style="shape=umlLifeline;perimeter=lifelinePerimeter;whiteSpace=wrap;html=1;container=1;collapsible=0;recursiveResize=0;outlineConnect=0;rounded=1;shadow=0;comic=0;labelBackgroundColor=none;strokeColor=#000000;strokeWidth=1;fillColor=#FFFFFF;fontFamily=Verdana;fontSize=12;fontColor=#000000;align=center;" parent="1" vertex="1">
          <mxGeometry x="240" y="80" width="100" height="490" as="geometry"/>
        </mxCell>
        <mxCell id="OGBKBctr95_yfihr8h83-3" value="" style="html=1;points=[];perimeter=orthogonalPerimeter;rounded=0;shadow=0;comic=0;labelBackgroundColor=none;strokeColor=#000000;strokeWidth=1;fillColor=#FFFFFF;fontFamily=Verdana;fontSize=12;fontColor=#000000;align=center;" parent="OGBKBctr95_yfihr8h83-2" vertex="1">
          <mxGeometry x="45" y="100" width="10" height="320" as="geometry"/>
        </mxCell>
        <mxCell id="OGBKBctr95_yfihr8h83-4" value="group:Group" style="shape=umlLifeline;perimeter=lifelinePerimeter;whiteSpace=wrap;html=1;container=1;collapsible=0;recursiveResize=0;outlineConnect=0;rounded=1;shadow=0;comic=0;labelBackgroundColor=none;strokeColor=#000000;strokeWidth=1;fillColor=#FFFFFF;fontFamily=Verdana;fontSize=12;fontColor=#000000;align=center;" parent="1" vertex="1">
          <mxGeometry x="400" y="80" width="100" height="490" as="geometry"/>
        </mxCell>
        <mxCell id="OGBKBctr95_yfihr8h83-5" value="" style="html=1;points=[];perimeter=orthogonalPerimeter;rounded=0;shadow=0;comic=0;labelBackgroundColor=none;strokeColor=#000000;strokeWidth=1;fillColor=#FFFFFF;fontFamily=Verdana;fontSize=12;fontColor=#000000;align=center;" parent="OGBKBctr95_yfihr8h83-4" vertex="1">
          <mxGeometry x="45" y="150" width="10" height="230" as="geometry"/>
        </mxCell>
        <mxCell id="OGBKBctr95_yfihr8h83-6" value="ChooseGroup()" style="html=1;verticalAlign=bottom;endArrow=block;entryX=0;entryY=0;labelBackgroundColor=none;fontFamily=Verdana;fontSize=12;edgeStyle=elbowEdgeStyle;elbow=vertical;" parent="1" target="OGBKBctr95_yfihr8h83-3" edge="1">
          <mxGeometry relative="1" as="geometry">
            <mxPoint x="150" y="180" as="sourcePoint"/>
          </mxGeometry>
        </mxCell>
        <mxCell id="OGBKBctr95_yfihr8h83-8" value="" style="endArrow=none;dashed=1;html=1;" parent="1" source="OGBKBctr95_yfihr8h83-15" edge="1">
          <mxGeometry width="50" height="50" relative="1" as="geometry">
            <mxPoint x="151" y="660" as="sourcePoint"/>
            <mxPoint x="151" y="120" as="targetPoint"/>
          </mxGeometry>
        </mxCell>
        <mxCell id="OGBKBctr95_yfihr8h83-9" value="user&lt;br&gt;" style="shape=umlActor;html=1;verticalLabelPosition=bottom;verticalAlign=top;align=center;" parent="1" vertex="1">
          <mxGeometry x="135" y="70" width="30" height="60" as="geometry"/>
        </mxCell>
        <mxCell id="OGBKBctr95_yfihr8h83-10" value="" style="endArrow=classic;html=1;" parent="1" edge="1">
          <mxGeometry width="50" height="50" relative="1" as="geometry">
            <mxPoint x="295" y="230" as="sourcePoint"/>
            <mxPoint x="445" y="230" as="targetPoint"/>
          </mxGeometry>
        </mxCell>
        <mxCell id="OGBKBctr95_yfihr8h83-11" value="SendSelectQuery()" style="text;html=1;resizable=0;points=[];align=center;verticalAlign=middle;labelBackgroundColor=#ffffff;" parent="OGBKBctr95_yfihr8h83-10" vertex="1" connectable="0">
          <mxGeometry x="-0.4273" y="7" relative="1" as="geometry">
            <mxPoint x="32" y="-4" as="offset"/>
          </mxGeometry>
        </mxCell>
        <mxCell id="OGBKBctr95_yfihr8h83-12" value="return Result()" style="html=1;verticalAlign=bottom;endArrow=open;dashed=1;endSize=8;" parent="1" edge="1">
          <mxGeometry relative="1" as="geometry">
            <mxPoint x="444.5" y="318" as="sourcePoint"/>
            <mxPoint x="295" y="318" as="targetPoint"/>
          </mxGeometry>
        </mxCell>
        <mxCell id="OGBKBctr95_yfihr8h83-15" value="" style="html=1;points=[];perimeter=orthogonalPerimeter;" parent="1" vertex="1">
          <mxGeometry x="145" y="170" width="10" height="340" as="geometry"/>
        </mxCell>
        <mxCell id="OGBKBctr95_yfihr8h83-16" value="" style="endArrow=none;dashed=1;html=1;" parent="1" target="OGBKBctr95_yfihr8h83-15" edge="1">
          <mxGeometry width="50" height="50" relative="1" as="geometry">
            <mxPoint x="151" y="570" as="sourcePoint"/>
            <mxPoint x="151" y="120" as="targetPoint"/>
          </mxGeometry>
        </mxCell>
        <mxCell id="OGBKBctr95_yfihr8h83-24" value="" style="endArrow=classic;html=1;entryX=1.5;entryY=0.261;entryDx=0;entryDy=0;entryPerimeter=0;" parent="1" target="OGBKBctr95_yfihr8h83-5" edge="1">
          <mxGeometry width="50" height="50" relative="1" as="geometry">
            <mxPoint x="460" y="250" as="sourcePoint"/>
            <mxPoint x="530" y="310" as="targetPoint"/>
            <Array as="points">
              <mxPoint x="510" y="250"/>
              <mxPoint x="510" y="290"/>
            </Array>
          </mxGeometry>
        </mxCell>
        <mxCell id="OGBKBctr95_yfihr8h83-25" value="ExecuteQuery()" style="text;html=1;align=center;verticalAlign=middle;resizable=0;points=[];labelBackgroundColor=#ffffff;" parent="OGBKBctr95_yfihr8h83-24" vertex="1" connectable="0">
          <mxGeometry x="0.1286" relative="1" as="geometry">
            <mxPoint as="offset"/>
          </mxGeometry>
        </mxCell>
        <mxCell id="OGBKBctr95_yfihr8h83-26" value="SpecifyPercentage()" style="html=1;verticalAlign=bottom;endArrow=block;entryX=0;entryY=0;labelBackgroundColor=none;fontFamily=Verdana;fontSize=12;edgeStyle=elbowEdgeStyle;elbow=vertical;" parent="1" edge="1">
          <mxGeometry relative="1" as="geometry">
            <mxPoint x="155" y="330" as="sourcePoint"/>
            <mxPoint x="290" y="330.0000000000002" as="targetPoint"/>
          </mxGeometry>
        </mxCell>
        <mxCell id="OGBKBctr95_yfihr8h83-28" value="transaction:transaction" style="shape=umlLifeline;perimeter=lifelinePerimeter;whiteSpace=wrap;html=1;container=1;collapsible=0;recursiveResize=0;outlineConnect=0;rounded=1;shadow=0;comic=0;labelBackgroundColor=none;strokeColor=#000000;strokeWidth=1;fillColor=#FFFFFF;fontFamily=Verdana;fontSize=12;fontColor=#000000;align=center;" parent="1" vertex="1">
          <mxGeometry x="590" y="80" width="100" height="490" as="geometry"/>
        </mxCell>
        <mxCell id="OGBKBctr95_yfihr8h83-29" value="" style="html=1;points=[];perimeter=orthogonalPerimeter;rounded=0;shadow=0;comic=0;labelBackgroundColor=none;strokeColor=#000000;strokeWidth=1;fillColor=#FFFFFF;fontFamily=Verdana;fontSize=12;fontColor=#000000;align=center;" parent="OGBKBctr95_yfihr8h83-28" vertex="1">
          <mxGeometry x="45" y="150" width="10" height="230" as="geometry"/>
        </mxCell>
        <mxCell id="OGBKBctr95_yfihr8h83-30" value="" style="endArrow=classic;html=1;entryX=1.5;entryY=0.261;entryDx=0;entryDy=0;entryPerimeter=0;" parent="1" edge="1">
          <mxGeometry width="50" height="50" relative="1" as="geometry">
            <mxPoint x="640" y="370.99" as="sourcePoint"/>
            <mxPoint x="640" y="411.02" as="targetPoint"/>
            <Array as="points">
              <mxPoint x="690" y="370.99"/>
              <mxPoint x="690" y="410.99"/>
            </Array>
          </mxGeometry>
        </mxCell>
        <mxCell id="OGBKBctr95_yfihr8h83-31" value="InsertLoan_debtQuery()" style="text;html=1;align=center;verticalAlign=middle;resizable=0;points=[];labelBackgroundColor=#ffffff;" parent="OGBKBctr95_yfihr8h83-30" vertex="1" connectable="0">
          <mxGeometry x="0.1286" relative="1" as="geometry">
            <mxPoint as="offset"/>
          </mxGeometry>
        </mxCell>
        <mxCell id="OGBKBctr95_yfihr8h83-35" value="" style="endArrow=classic;html=1;exitX=0.98;exitY=0.567;exitDx=0;exitDy=0;exitPerimeter=0;entryX=0.5;entryY=0.571;entryDx=0;entryDy=0;entryPerimeter=0;" parent="1" source="OGBKBctr95_yfihr8h83-3" target="OGBKBctr95_yfihr8h83-29" edge="1">
          <mxGeometry width="50" height="50" relative="1" as="geometry">
            <mxPoint x="320" y="470" as="sourcePoint"/>
            <mxPoint x="370" y="420" as="targetPoint"/>
          </mxGeometry>
        </mxCell>
        <mxCell id="OGBKBctr95_yfihr8h83-36" value="AddNewLoan()" style="text;html=1;align=center;verticalAlign=middle;resizable=0;points=[];labelBackgroundColor=#ffffff;" parent="OGBKBctr95_yfihr8h83-35" vertex="1" connectable="0">
          <mxGeometry x="0.0904" relative="1" as="geometry">
            <mxPoint as="offset"/>
          </mxGeometry>
        </mxCell>
        <mxCell id="OGBKBctr95_yfihr8h83-37" value="" style="endArrow=classic;html=1;exitX=0.5;exitY=0.859;exitDx=0;exitDy=0;exitPerimeter=0;" parent="1" edge="1">
          <mxGeometry width="50" height="50" relative="1" as="geometry">
            <mxPoint x="639.6666666666667" y="430.33333333333337" as="sourcePoint"/>
            <mxPoint x="290" y="430" as="targetPoint"/>
            <Array as="points">
              <mxPoint x="564.5" y="430"/>
            </Array>
          </mxGeometry>
        </mxCell>
        <mxCell id="OGBKBctr95_yfihr8h83-38" value="&lt;span style=&quot;font-size: 10px&quot;&gt;ReturnResult()&lt;/span&gt;" style="text;html=1;resizable=0;points=[];align=center;verticalAlign=middle;labelBackgroundColor=#ffffff;" parent="OGBKBctr95_yfihr8h83-37" vertex="1" connectable="0">
          <mxGeometry x="-0.1507" y="1" relative="1" as="geometry">
            <mxPoint x="-9.5" y="-13" as="offset"/>
          </mxGeometry>
        </mxCell>
        <mxCell id="OGBKBctr95_yfihr8h83-39" value="" style="endArrow=classic;html=1;exitX=0.5;exitY=0.859;exitDx=0;exitDy=0;exitPerimeter=0;" parent="1" edge="1">
          <mxGeometry width="50" height="50" relative="1" as="geometry">
            <mxPoint x="284.66666666666674" y="440.33333333333337" as="sourcePoint"/>
            <mxPoint x="155" y="440" as="targetPoint"/>
            <Array as="points">
              <mxPoint x="209.5" y="440"/>
            </Array>
          </mxGeometry>
        </mxCell>
        <mxCell id="OGBKBctr95_yfihr8h83-40" value="&lt;span style=&quot;font-size: 10px&quot;&gt;ShowResult()&lt;/span&gt;" style="text;html=1;resizable=0;points=[];align=center;verticalAlign=middle;labelBackgroundColor=#ffffff;" parent="OGBKBctr95_yfihr8h83-39" vertex="1" connectable="0">
          <mxGeometry x="-0.1507" y="1" relative="1" as="geometry">
            <mxPoint x="-9.5" y="-13" as="offset"/>
          </mxGeometry>
        </mxCell>
      </root>
    </mxGraphModel>
  </diagram>
</mxfile>
